<svg width="890" height="890" viewBox="0 0 890 890" fill="none" xmlns="http://www.w3.org/2000/svg">
<g clip-path="url(#clip0_203_1429)">
<rect width="890" height="890" rx="445" fill="#7278F2"/>
<path d="M371.422 665.256L324.013 617.847C263.764 557.598 302.284 515.127 302.284 515.127L256.85 469.693C256.85 469.693 181.786 556.61 267.715 641.551L330.927 704.763L371.422 665.256ZM461.302 563.524H532.415C579.824 455.866 516.612 320.552 515.624 317.589L458.339 346.232C458.339 347.22 504.76 481.546 461.302 563.524Z" fill="white"/>
<path d="M568.955 593.153C554.14 546.732 510.681 513.15 459.321 513.15C407.962 513.15 364.503 546.732 349.688 593.153L298.328 741.307H620.315L568.955 593.153ZM318.082 396.603L561.053 190.176L623.278 262.277L380.306 468.704L318.082 396.603Z" fill="white"/>
<path d="M368.446 455.864L328.938 409.442L310.172 434.135L341.778 470.679L368.446 455.864ZM636.109 228.695L596.602 182.274L571.91 203.015L611.417 249.437L636.109 228.695Z" fill="white"/>
<path d="M646.982 241.536L584.758 169.435L609.45 148.693L671.674 221.782L646.982 241.536Z" fill="white"/>
<path d="M556.11 383.764C544.258 417.345 507.713 434.136 474.132 422.284C440.55 410.432 422.772 373.887 434.624 341.293C446.476 308.7 483.021 290.921 516.602 302.773C550.184 314.626 567.962 351.17 556.11 383.764Z" fill="#7278F2"/>
<path d="M459.307 689.947C494.764 689.947 523.507 661.646 523.507 626.735C523.507 591.824 494.764 563.523 459.307 563.523C423.851 563.523 395.107 591.824 395.107 626.735C395.107 661.646 423.851 689.947 459.307 689.947Z" fill="#7278F2"/>
<path d="M485.996 392.654C502.786 398.58 520.565 389.691 526.491 372.9C532.417 356.109 523.528 338.331 506.737 332.405C489.946 326.478 472.168 335.368 466.242 352.158C460.316 367.961 469.205 386.727 485.996 392.654Z" fill="white"/>
<path d="M459.321 658.343C476.776 658.343 490.927 644.192 490.927 626.737C490.927 609.281 476.776 595.131 459.321 595.131C441.865 595.131 427.715 609.281 427.715 626.737C427.715 644.192 441.865 658.343 459.321 658.343Z" fill="white"/>
<path d="M217 441.86L228.161 430.679L342.081 544.461L330.92 555.642L217 441.86Z" fill="white"/>
<path d="M228.92 430.461L240.081 419.281L354.011 533.063L342.84 544.233L228.92 430.461Z" fill="#7278F2"/>
</g>
<defs>
<clipPath id="clip0_203_1429">
<rect width="890" height="890" fill="white"/>
</clipPath>
</defs>
</svg>
